<?xml version="1.0" encoding="UTF-8" standalone="no"?>
<svg
   xmlns:dc="http://purl.org/dc/elements/1.1/"
   xmlns:cc="http://creativecommons.org/ns#"
   xmlns:rdf="http://www.w3.org/1999/02/22-rdf-syntax-ns#"
   xmlns:svg="http://www.w3.org/2000/svg"
   xmlns="http://www.w3.org/2000/svg"
   id="svg8"
   version="1.1"
   viewBox="0 0 47.984977 7.1254202"
   height="26.930721"
   width="181.36055">
  <g
     transform="translate(-158.5918,-191.44384)"
     id="layer1">
    <path
       id="path1138"
       d="m 162.3891,198.39146 v -0.1778 h -1.89865 -1.89865 v -0.1143 -0.1143 h 1.89865 1.89865 v -0.18415 -0.18415 h 0.40005 0.40005 v -0.27305 -0.27305 h -1.5621 -1.5621 v -0.7239 -0.7239 h 3.46075 3.46075 v 0.7239 0.7239 h -1.78435 -1.78435 v 0.27305 0.27305 h 0.3937 0.3937 v 0.18415 0.18415 h 2.22885 2.22885 v 0.1143 0.1143 h -2.22885 -2.22885 v 0.1778 0.1778 h -0.90805 -0.90805 z m 1.5875,-0.29845 v -0.24765 h -0.67945 -0.67945 v 0.24765 0.24765 h 0.67945 0.67945 z m 2.7813,-1.7399 v -0.48895 h -3.23215 -3.23215 v 0.48895 0.48895 h 3.23215 3.23215 z m -0.8636,0.0318 c -0.0304,-0.0304 -0.0329,-0.0853 -0.006,-0.12417 0.0147,-0.0209 0.0325,-0.0282 0.0691,-0.0282 0.0366,0 0.0545,0.007 0.0691,0.0282 0.0452,0.0645 0.006,0.14957 -0.0691,0.14957 -0.0212,0 -0.0494,-0.0113 -0.0635,-0.0254 z m -5.0419,-0.0699 v -0.0699 h 0.8001 0.8001 v 0.0699 0.0699 h -0.8001 -0.8001 z m 16.98005,1.52083 c 1.2e-4,-0.0122 0.0487,-0.29646 0.10795,-0.63163 0.0593,-0.33516 0.1078,-0.61374 0.1078,-0.61905 0,-0.005 0.48406,-0.0111 1.07568,-0.0129 l 1.07568,-0.003 0.0157,-0.0825 c 0.009,-0.0454 0.0161,-0.0868 0.0165,-0.0921 4.3e-4,-0.005 -0.34411,-0.01 -0.76565,-0.01 h -0.76644 l -0.24639,-0.2997 c -0.13551,-0.16483 -0.24814,-0.30997 -0.25028,-0.32253 -0.003,-0.0184 0.57309,-3.32715 0.62096,-3.56559 l 0.0134,-0.0667 h 0.61606 0.61606 l -0.007,0.0349 c -0.0112,0.0547 -0.51561,2.9206 -0.51561,2.9292 0,0.004 0.20574,0.008 0.4572,0.008 0.25146,0 0.4572,-0.003 0.4572,-0.007 0,-0.009 0.50542,-2.88145 0.51547,-2.92982 l 0.007,-0.0349 h 0.64058 0.64058 l -0.007,0.0286 c -0.004,0.0157 -0.20669,1.16567 -0.45133,2.55547 -0.24464,1.38979 -0.44898,2.53058 -0.45409,2.53507 -0.005,0.004 -0.16842,0.14327 -0.36291,0.30838 l -0.35362,0.3002 h -1.40216 c -1.32697,0 -1.40214,-0.001 -1.402,-0.0222 z m -6.38951,-1.75068 c -0.13551,-0.16483 -0.24813,-0.30993 -0.25027,-0.32245 -0.004,-0.0217 0.51125,-2.97047 0.52566,-3.01005 0.004,-0.0105 0.16763,-0.15478 0.36404,-0.32067 l 0.35712,-0.30163 h 1.40759 1.4076 l -0.006,0.0286 c -0.004,0.0157 -0.0523,0.29146 -0.10834,0.61277 -0.056,0.32131 -0.1048,0.59706 -0.10834,0.61278 l -0.006,0.0286 h -1.0969 -1.09689 l -0.007,0.0413 c -0.0756,0.42558 -0.28759,1.63413 -0.28759,1.63994 0,0.004 0.49149,0.008 1.0922,0.008 1.07843,0 1.0922,3.2e-4 1.0922,0.025 0,0.0138 -0.0486,0.29968 -0.10795,0.63536 -0.0594,0.33568 -0.10795,0.61302 -0.10795,0.61632 0,0.003 -0.6335,0.006 -1.40778,0.006 h -1.40779 z m 3.20682,0.26478 c 0.004,-0.0192 0.1474,-0.83217 0.31879,-1.80658 0.17138,-0.97441 0.31471,-1.78022 0.31851,-1.7907 0.004,-0.0105 0.1676,-0.15478 0.36401,-0.32067 l 0.35712,-0.30163 h 1.40759 1.4076 l -0.006,0.0286 c -0.004,0.0157 -0.0523,0.29146 -0.10834,0.61277 -0.056,0.32131 -0.1048,0.59706 -0.10834,0.61278 l -0.006,0.0286 h -1.09831 c -0.60407,0 -1.09831,0.004 -1.09831,0.009 0,0.0115 -0.4913,2.80521 -0.50928,2.89595 l -0.0132,0.0667 h -0.61606 -0.61606 z m 7.17413,0.006 c 0.004,-0.0157 0.19988,-1.12729 0.4362,-2.47015 l 0.42967,-2.44158 h 0.63832 c 0.37058,0 0.63832,0.005 0.63832,0.0114 0,0.006 -0.08,0.4659 -0.1778,1.02134 -0.0978,0.55545 -0.1778,1.01321 -0.1778,1.01726 0,0.004 0.19364,0.007 0.43032,0.007 0.39925,0 0.43072,-0.002 0.43586,-0.0222 0.003,-0.0122 0.0852,-0.47512 0.18246,-1.02866 l 0.17691,-1.00644 0.6398,-3e-5 0.6398,-4e-5 -0.009,0.054 c -0.005,0.0297 -0.19973,1.13876 -0.43342,2.4646 -0.23369,1.32585 -0.42489,2.41313 -0.42489,2.41618 0,0.003 -0.27718,0.006 -0.61595,0.006 -0.33877,0 -0.61595,-0.004 -0.61595,-0.01 0,-0.005 0.0629,-0.36569 0.1397,-0.80081 0.0768,-0.43512 0.1397,-0.79366 0.1397,-0.79676 0,-0.003 -0.20574,-0.006 -0.4572,-0.006 -0.25146,0 -0.4572,0.002 -0.4572,0.005 0,0.004 -0.25268,1.4451 -0.27473,1.56647 l -0.007,0.0413 h -0.64131 -0.64131 l 0.007,-0.0286 z m 4.09705,-0.27113 c -0.13551,-0.16483 -0.24813,-0.30993 -0.25027,-0.32245 -0.004,-0.0217 0.51125,-2.97047 0.52566,-3.01005 0.004,-0.0105 0.16763,-0.15478 0.36404,-0.32067 l 0.35712,-0.30163 1.09938,1e-5 h 1.09938 l 0.25297,0.30737 0.25298,0.30736 -0.26616,1.51189 -0.26616,1.51188 -0.36146,0.30788 -0.36147,0.30789 -1.09981,1.1e-4 -1.09981,1.2e-4 -0.24639,-0.2997 z m 2.19669,-1.79897 c 0.0789,-0.44879 0.14642,-0.82884 0.15011,-0.84455 l 0.007,-0.0286 h -0.48256 -0.48256 l -0.007,0.0413 c -0.0756,0.42558 -0.28759,1.63413 -0.28759,1.63994 0,0.004 0.21596,0.008 0.47992,0.008 h 0.47991 z m 1.17065,2.08915 c 3.2e-4,-0.005 0.0507,-0.29242 0.11197,-0.63818 l 0.11138,-0.62865 1.09904,-0.003 1.09903,-0.003 0.0146,-0.0881 c 0.008,-0.0485 0.0145,-0.097 0.0145,-0.10788 0,-0.0177 -0.0829,-0.0198 -0.78422,-0.02 l -0.78423,-2.2e-4 -0.254,-0.3099 c -0.19537,-0.23837 -0.25301,-0.31673 -0.24973,-0.33951 0.0128,-0.089 0.25772,-1.46774 0.26353,-1.48375 0.004,-0.0105 0.16761,-0.15478 0.36402,-0.32067 l 0.35712,-0.30163 h 1.4076 1.40759 l -0.006,0.0286 c -0.004,0.0157 -0.0523,0.29146 -0.10834,0.61277 -0.056,0.32131 -0.1048,0.59706 -0.10834,0.61278 l -0.006,0.0286 h -1.09701 -1.097 l -0.014,0.0804 c -0.008,0.0442 -0.014,0.0871 -0.014,0.0952 0,0.0111 0.19648,0.015 0.79058,0.0154 l 0.79057,5.7e-4 0.23495,0.28582 c 0.12922,0.1572 0.24179,0.29553 0.25016,0.3074 0.0122,0.0174 -0.0113,0.17211 -0.1211,0.79623 l -0.1363,0.77465 -0.36151,0.30791 -0.3615,0.30792 -1.40652,1.1e-4 c -0.77359,7e-5 -1.40627,-0.004 -1.40595,-0.009 z m 4.08756,-0.29015 c -0.13551,-0.16482 -0.2484,-0.30855 -0.25086,-0.31941 -0.002,-0.0108 0.16605,-0.98756 0.37447,-2.17047 l 0.37895,-2.15075 h 0.63835 c 0.38667,0 0.63835,0.005 0.63835,0.0119 0,0.007 -0.06,0.3528 -0.13335,0.7695 -0.0733,0.41671 -0.13335,0.75999 -0.13335,0.76285 0,0.003 0.36005,0.005 0.8001,0.005 0.44006,0 0.80025,0.004 0.80044,0.01 1.9e-4,0.005 -0.0496,0.29384 -0.11059,0.64135 l -0.11093,0.63182 h -0.8028 -0.8028 l -0.007,0.0349 c -0.016,0.0771 -0.13446,0.75919 -0.13446,0.77433 0,0.0131 0.20903,0.0162 1.0668,0.0162 1.05316,0 1.0668,3.2e-4 1.0668,0.025 0,0.0138 -0.0486,0.29968 -0.10795,0.63536 -0.0594,0.33568 -0.10795,0.61302 -0.10795,0.61632 0,0.003 -0.6335,0.006 -1.40778,0.006 h -1.40779 z m 3.75155,0.2711 c 0.004,-0.0157 0.0542,-0.30146 0.1125,-0.63497 l 0.10596,-0.60639 0.63818,-4e-5 c 0.44824,-3e-5 0.63817,0.004 0.63817,0.0137 0,0.008 -0.0486,0.28948 -0.10795,0.62654 -0.0594,0.33706 -0.10795,0.61664 -0.10795,0.62129 0,0.005 -0.28923,0.008 -0.64273,0.008 h -0.64272 l 0.007,-0.0286 z m 2.01425,-0.27113 c -0.13551,-0.16483 -0.24813,-0.30993 -0.25027,-0.32245 -0.004,-0.0217 0.51125,-2.97047 0.52566,-3.01005 0.004,-0.0105 0.16763,-0.15478 0.36404,-0.32067 l 0.35712,-0.30163 h 0.76495 0.76496 l 0.0125,-0.0603 c 0.007,-0.0332 0.0345,-0.18749 0.0614,-0.3429 l 0.0489,-0.28258 h 0.63981 0.63982 l -0.009,0.054 c -0.005,0.0297 -0.19973,1.13875 -0.43342,2.4646 -0.23369,1.32584 -0.42489,2.41312 -0.42489,2.41617 0,0.003 -0.6335,0.006 -1.40778,0.006 h -1.40779 z m 2.00786,-0.99088 c 0,-0.006 0.21194,-1.21436 0.28759,-1.63994 l 0.007,-0.0413 h -0.4572 -0.4572 l -0.007,0.0413 c -0.0757,0.42558 -0.28759,1.63413 -0.28759,1.63994 0,0.004 0.20574,0.008 0.4572,0.008 0.25146,0 0.4572,-0.004 0.4572,-0.008 z m 1.72594,0.99088 c -0.13551,-0.16483 -0.24813,-0.30993 -0.25027,-0.32245 -0.004,-0.0217 0.51125,-2.97047 0.52566,-3.01005 0.004,-0.0105 0.16763,-0.15478 0.36404,-0.32067 l 0.35712,-0.30163 1.09938,1e-5 h 1.09938 l 0.25301,0.30742 0.25302,0.30741 -0.13634,0.77526 c -0.10216,0.58088 -0.14171,0.78038 -0.15776,0.7957 -0.0118,0.0112 -0.17391,0.14979 -0.36027,0.30788 l -0.33883,0.28743 -0.79055,0.003 -0.79055,0.003 -0.009,0.032 c -0.005,0.0176 -0.0126,0.059 -0.0176,0.0921 l -0.009,0.0601 h 1.09297 c 1.07921,0 1.09298,3.2e-4 1.09298,0.025 0,0.0138 -0.0486,0.29968 -0.10795,0.63536 -0.0594,0.33568 -0.10795,0.61302 -0.10795,0.61632 0,0.003 -0.6335,0.006 -1.40778,0.006 h -1.40779 z m 2.32509,-2.52922 c 0.008,-0.0402 0.0173,-0.0888 0.021,-0.10795 l 0.007,-0.0349 h -0.48246 -0.48246 l -0.0147,0.0921 c -0.008,0.0506 -0.017,0.0992 -0.0198,0.10795 -0.004,0.0125 0.0969,0.0159 0.47617,0.0159 h 0.4813 z m -45.13553,0.88582 v -0.7239 h 3.46075 3.46075 v 0.7239 0.7239 h -3.46075 -3.46075 z m 6.6929,0 v -0.4953 h -3.23215 -3.23215 v 0.4953 0.4953 h 3.23215 3.23215 z m -0.85554,0.0372 c -0.0243,-0.0191 -0.0335,-0.038 -0.0335,-0.0689 0,-0.0456 0.0463,-0.0953 0.0889,-0.0953 0.0426,0 0.0889,0.0496 0.0889,0.0953 0,0.0456 -0.0463,0.0952 -0.0889,0.0952 -0.0121,0 -0.037,-0.0118 -0.0554,-0.0263 z m -5.04996,-0.0817 v -0.07 l 0.79693,0.003 0.79692,0.003 0.004,0.0667 0.004,0.0667 h -0.80077 -0.80076 z m -0.7874,-1.83506 v -0.7239 h 3.46075 3.46075 v 0.7239 0.7239 h -3.46075 -3.46075 z m 6.6929,-3e-5 v -0.49532 l -3.22897,0.003 -3.22898,0.003 -0.003,0.49213 -0.003,0.49212 h 3.2323 3.2323 v -0.49532 z m -0.86139,0.0341 c -0.0569,-0.0606 -0.0199,-0.15264 0.0613,-0.15264 0.0826,0 0.12014,0.0975 0.0595,0.15442 -0.0381,0.0358 -0.0861,0.0351 -0.1208,-0.002 z m -5.04411,-0.0658 v -0.07 h 0.80076 0.80077 l -0.004,0.0667 -0.004,0.0667 -0.79692,0.003 -0.79693,0.003 z"
       style="fill:#adbac7;stroke-width:0.0127" />
  </g>
</svg>
